PathFileType	4	(X/Y/Z)	C:/Users/beibeiliu/ov580/test_trc/User2\sequence.38_training_dense_right.trc
DataRate	CameraRate	NumFrames	NumMarkers	Units	OrigDataRate	OrigDataStartFrame	OrigNumFrames
120	120	8	19	mm	120	63	94
Frame#	Time	ThumbCMC			ThumbMCP			ThumbIP			ThumbTip			IndexMCP			IndexPIP			IndexTip			MiddleMCP			MiddlePIP			MiddleTip			RingMCP			RingPIP			RingTip			PinkyMCP			PinkyPIP			PinkyTip			BackHand1			BackHand2			BackHand3	
		X0	Y0	Z0	X1	Y1	Z1	X2	Y2	Z2	X3	Y3	Z3	X4	Y4	Z4	X5	Y5	Z5	X6	Y6	Z6	X7	Y7	Z7	X8	Y8	Z8	X9	Y9	Z9	X10	Y10	Z10	X11	Y11	Z11	X12	Y12	Z12	X13	Y13	Z13	X14	Y14	Z14	X15	Y15	Z15	X16	Y16	Z16	X17	Y17	Z17	X18	Y18	Z18	
62	0.516667	81.9083	73.2166	32.404	64.303	70.3876	3.91174	59.7756	63.572	-33.9014	58.9127	53.7987	-54.9476	96.2976	58.9991	-43.2995	77.3391	34.0557	-43.4148	75.2295	44.7205	-7.08646	105.842	34.9526	-44.7412	80.0138	18.0775	-29.5393	90.1857	38.4055	6.10965	119.602	19.9483	-38.9648	90.759	5.62465	-28.7265	96.236	21.8865	5.83116	151.681	16.7827	-28.4883	146.602	6.16303	-56.8382	135.774	-4.80151	-80.6296	146.42	50.7689	12.4377	150.285	52.5939	47.1666	122.09	76.9131	24.6373	
63	0.525	94.1251	80.2723	25.1673	72.8573	81.8502	0.430842	56.9461	75.433	-31.0557	47.0652	61.8341	-53.6056	84.1698	49.9166	-45.225	53.2511	42.7078	-33.9942	73.9584	52.2567	-4.75478	84.5998	26.2321	-40.0083	57.4199	23.3399	-20.6001	85.2255	43.2389	8.59849	88.8269	6.57366	-33.5275	62.2223	5.6282	-15.7946	78.443	23.3916	10.5823	115.289	-9.72247	-29.3519	99.6757	-17.574	-49.5705	81.8906	-29.0327	-68.7672	138.337	27.435	0.186077	147.493	33.8257	37.0216	128.896	65.8745	13.2258	
64	0.533333	116.047	83.7502	22.3474	93.6208	94.921	-8.20539	71.7649	94.6123	-32.3077	54.6084	83.0866	-52.1907	80.8823	61.0437	-47.916	51.2365	66.9648	-29.2651	77.3395	68.5178	-5.29285	69.353	40.3748	-38.8569	47.9416	48.5373	-12.6972	81.3521	58.8516	7.32958	63.8045	19.5545	-28.5276	43.3298	33.797	-4.03926	69.3972	44.4619	13.4169	78.5621	-6.62441	-24.8701	56.0267	-11.5809	-40.4297	36.3744	-17.1081	-53.7788	121.488	13.5943	-2.92525	140.456	18.1133	29.3187	136.191	51.5482	6.20577	
65	0.541667	140.514	80.7031	10.8924	123.75	95.6183	-13.8448	103.743	104.421	-40.7516	82.3301	105.227	-55.5288	88.778	73.491	-49.8357	65.9513	91.0103	-31.4408	88.511	87.1504	-6.59204	64.9741	61.15	-37.1357	57.1966	83.0641	-13.3183	91.0404	77.5903	5.65812	55.7553	51.5161	-27.3904	48.2261	74.0271	-8.07611	79.5215	70.2439	11.1222	54.4556	20.2149	-19.0737	30.1677	24.2328	-30.8298	14.6641	27.0241	-44.0572	107.447	16.3372	0.375383	129.241	15.218	28.6507	137.752	38.6386	-2.35237	
66	0.55	154.377	69.6692	5.82954	144.381	87.4042	-18.8727	126.338	99.2533	-50.3265	107.775	106.544	-63.4849	97.6007	80.7518	-52.2072	88.5319	108.29	-41.2372	108.933	97.509	-9.01849	77.7462	74.7951	-39.8605	75.816	104.049	-18.3114	105.461	84.19	4.30482	58.9276	72.4044	-29.6972	62.528	98.5214	-11.1788	88.9792	86.9147	6.89196	50.8492	44.5247	-15.9154	35.0099	55.1024	-27.2318	13.3422	60.005	-42.8766	94.5382	22.4194	0.685728	115.487	15.9739	29.3629	135.654	32.9802	0.293899	
67	0.558333	161.498	60.1198	5.58064	153.82	75.9688	-22.0726	137.798	86.1952	-52.3946	127.803	97.6584	-71.2973	109.276	74.37	-57.2535	104.871	105.331	-48.9729	117.002	97.7753	-15.292	89.7709	78.6756	-47.4749	88.9886	105.865	-28.2213	111.822	88.5503	0.270753	69.1708	70.2984	-35.1926	72.5212	101.582	-26.3297	95.9781	91.1912	-0.315752	55.1842	50.8719	-18.3418	41.9242	63.2264	-40.3654	26.7742	68.5365	-54.0132	96.8194	25.0538	3.636	111.389	14.7214	34.3139	136.997	27.3738	-1.44251	
68	0.566667	165.883	55.3301	5.97126	160.274	68.4302	-21.2728	151.984	78.7131	-57.8216	139.909	85.4247	-77.6746	121.716	59.2727	-61.7548	109.786	89.8789	-60.1938	123.54	93.2847	-26.1913	96.0019	63.9482	-55.4419	94.9651	92.6991	-38.9071	116.828	79.7033	-6.82879	77.4972	57.2343	-45.3868	80.3029	87.7442	-38.6218	103.516	80.6546	-8.27409	67.7496	37.1176	-30.5882	58.3501	46.7081	-48.9405	44.2487	51.8996	-73.8141	107.551	15.5668	-1.03384	117.521	8.54974	28.1265	141.549	18.9089	-0.481914	
69	0.575	166.77	49.6048	0.967081	163.655	64.3212	-25.1021	154.512	71.1909	-62.3617	143.568	77.4811	-80.4645	134.351	49.0455	-72.6656	115.877	74.1523	-69.3395	122.261	80.8651	-34.9208	111.269	41.917	-65.5534	99.652	72.1312	-51.0662	117.595	62.0567	-14.8415	93.1066	31.0246	-56.5567	85.4558	60.9517	-50.7654	101.315	59.7503	-15.8785	87.9284	9.86636	-45.998	72.4635	13.4804	-62.224	62.3755	17.1537	-84.7819	123.937	-3.35331	-12.181	139.917	-4.51602	21.9952	162.148	14.1872	-2.68346	
